<svg xmlns="http://www.w3.org/2000/svg" viewBox="0 0 1297.88 239.75"><g id="Layer_2" data-name="Layer 2"><g id="Layer_1-2" data-name="Layer 1"><path fill="#00be9e" d="M37.59 76.35h5.87v5.87h-5.87zm98.53 40.94h5.87v5.87h-5.87zm98.71 42.47h5.87v5.87h-5.87zm97.05 13.75h5.87v5.87h-5.87zm106.93-17.78h5.87v5.87h-5.87zm117.55-52.29h5.87v5.87h-5.87zm110.91-20.18h5.87v5.87h-5.87zM759.68 96h5.87v5.87h-5.87zm88.26 39.2h5.87v5.87h-5.87zm108.77 39.17h5.87v5.87h-5.87zm126.61 6.6h5.87v5.87h-5.87zm90.42-22.02h5.87v5.87h-5.87z"></path><circle fill="#ffbac8" cx="1019.87" cy="123.67" r="8.83"></circle><circle fill="#122032" cx="1172.53" cy="101.1" r="10"></circle><path fill="#ffc400" d="M370.34 114.14l18.59-13.64a.53.53 0 00-.07-.89l-20.41-10.72a.53.53 0 00-.77.51l1.82 24.35a.53.53 0 00.84.39zm46.33-6.31l15.05-17.46a.52.52 0 00-.26-.85l-22.3-5.87a.53.53 0 00-.64.67l7.24 23.32a.53.53 0 00.91.19zm36.67-8.78l15.06-17.46a.53.53 0 00-.27-.86l-22.3-5.86a.53.53 0 00-.64.67l7.24 23.32a.53.53 0 00.91.19zM1137 129.68l-16.6-13.05a.25.25 0 010-.37l16.09-16.65a.25.25 0 01.43.17l.5 29.69a.25.25 0 01-.42.21z"></path><path fill="#30317c" d="M1059.61 129.53a16.87 16.87 0 0133.5-4z"></path><path fill="#ff8a70" d="M1202.23 89.25l-1.67-3.64c12.12-5.54 23-11.22 33.5-16.71 24.91-13 44.63-23.29 63.82-22.76l-.11 4c-18.21-.5-37.46 9.58-61.85 22.31-10.57 5.55-21.49 11.21-33.69 16.8z"></path><path fill="#00be9e" d="M325.86 124.7A356 356 0 01221.29 109c-31.21-9.58-60-24.57-87.85-39.07C89.5 47.09 48 25.48 0 25.48V4.65c53.1 0 98.83 23.81 143.06 46.84 27 14.07 54.95 28.61 84.34 37.63a335.33 335.33 0 00108.22 14.6l.59 20.83q-5.21.15-10.35.15z"></path><path fill="#7173b5" d="M1047.57 239.75a.91.91 0 01-.91-.89.88.88 0 01.88-.89.89.89 0 110 1.78zm17.86-.19a.9.9 0 110-1.79.9.9 0 01.91.85.88.88 0 01-.8.93zm-35.74-.37h-.11a.9.9 0 01-.81-1 .88.88 0 011-.81l-.07.89.08-.89a.9.9 0 01.83.92.88.88 0 01-.92.89zm53.62-.74a.91.91 0 01-.91-.82.87.87 0 01.79-1 .9.9 0 011 .82.89.89 0 01-.82 1zM994 236.32h-.15a.9.9 0 01-.75-1 .87.87 0 011-.78h.09a.9.9 0 01-.14 1.78zm107 0a.91.91 0 01-.9-.77.89.89 0 01.71-1h.12a.88.88 0 011 .81.9.9 0 01-.81 1zm-124.8-2.09h-.19a.89.89 0 01-.72-1 .9.9 0 011-.72l-.16.88.16-.87a.9.9 0 01.74 1 .88.88 0 01-.77.69zm142.62-1.16l-.25-.86-.16-.88a.89.89 0 01.41 1.74zm-.25-.86zm-789.49-1.51a.91.91 0 01-.91-.9.88.88 0 01.88-.89.9.9 0 110 1.79zm17.86-.24a.89.89 0 110-1.78.9.9 0 01.9.85.88.88 0 01-.8.93zm-35.73-.5h-.11a.89.89 0 01.16-1.78l-.08.89.08-.89a.9.9 0 01.83.93.88.88 0 01-.82.83zm53.61-.7a.91.91 0 01-.91-.82.88.88 0 01.8-1 .9.9 0 011 .82.89.89 0 01-.81 1zm771.15-.39a.91.91 0 01-.88-.65.89.89 0 01.61-1.1.9.9 0 01.47 1.73 1 1 0 01-.17 0zm-842.56-.59h-.15a.89.89 0 01.19-1.77h.11a.9.9 0 01-.15 1.78zm647.66-.69h-.2a.89.89 0 01.47-1.72l-.23.86.24-.86a.91.91 0 01.65 1.06.89.89 0 01-.87.64zm-558.49-.5a.9.9 0 01-.9-.77.88.88 0 01.71-1h.11a.89.89 0 11.16 1.78zm-106.87-1.42h-.16a.9.9 0 01-.73-1 .87.87 0 011-.72.9.9 0 01-.16 1.78zM400.22 224a.91.91 0 01-.88-.74.89.89 0 01.73-1l.15.88-.15-.89a.92.92 0 011 .69.88.88 0 01-.62 1.05h-.11zm753-.13a.89.89 0 01-.86-.66.9.9 0 01.62-1.1l.24.86-.23-.86a.9.9 0 011.1.59.87.87 0 01-.53 1.1h-.11a.91.91 0 01-.28.05zm-229.28-1a1 1 0 01-.3 0 .92.92 0 01-.57-1.12.88.88 0 011.07-.59h.11a.89.89 0 01.53 1.14.88.88 0 01-.89.52zm-665.66-.67h-.27a.89.89 0 01-.63-1.09.9.9 0 011.1-.63l-.23.86.23-.86a.9.9 0 01.66 1.06.89.89 0 01-.91.61zm159.41-2.2a.91.91 0 01-.88-.66.89.89 0 01.62-1.09.89.89 0 01.45 1.73.91.91 0 01-.19.02zm752.52-1.65a.9.9 0 01-.86-.61.89.89 0 01.53-1.11h.1a.89.89 0 11.47 1.72zm-929.34-.5a.83.83 0 01-.22 0l.42-1.73-.23.86.26-.86a.89.89 0 01-.23 1.76zm666.06-.66a.81.81 0 01-.31 0 .91.91 0 01-.55-1.15.88.88 0 011.13-.54.89.89 0 01-.3 1.73zm-472-2a.89.89 0 01-.24-1.75l.24.86-.23-.87a.91.91 0 011.1.59.89.89 0 01-.54 1.11h-.1zm17-5.66a.9.9 0 01-.24-1.76l.24.86-.23-.86a.91.91 0 011.1.58.89.89 0 01-.54 1.11h-.1a.66.66 0 01-.29 0zm-228.14 3.25h-.34A.89.89 0 11224 211l-.3.84.3-.84a.89.89 0 01-.27 1.74zm17.21 5.01a.66.66 0 01-.23 0h-.1a.89.89 0 11.61-1.68l-.31.84.31-.84a.91.91 0 01.56 1.12.89.89 0 01-.84.56zm946.16-5.28a.89.89 0 01-.85-.59.86.86 0 01.52-1.13.89.89 0 01.61 1.68.85.85 0 01-.31.04zm-296.88-1.82a.85.85 0 01-.4-.1.86.86 0 01-.5-1.13.93.93 0 011.18-.52l.12.06a.89.89 0 01-.4 1.69zm-438.06-1.31l-.34-.82-.29-.85a.9.9 0 011.15.52.88.88 0 01-.55 1.15zm-.34-.82zm4.2-6.33zm-249.24 4.66a.87.87 0 01-.32-.06.91.91 0 01-.54-1.15.88.88 0 011.13-.53.89.89 0 01-.31 1.73zm997-.67a.89.89 0 01-.3-1.73l.3.84-.3-.84a.86.86 0 011.16.41.93.93 0 01-.43 1.22h-.12a.84.84 0 01-.3.1zm-330-2.7a.87.87 0 01-.32-.06l-.12-.05a.89.89 0 01.79-1.6l-.4.8.41-.8a.86.86 0 01.5 1.13.91.91 0 01-.82.58zm-405.34-1.39zm-278.46-1.62a.8.8 0 01-.37-.08.9.9 0 01-.47-1.16.87.87 0 011.12-.5h.09a.89.89 0 01-.37 1.7zm1030.34-1.1a.91.91 0 01-.83-.54.88.88 0 01.44-1.16h.07a.89.89 0 11.66 1.66 1 1 0 01-.3.04zM485 195.88a.9.9 0 01-.83-.54.88.88 0 01.42-1.15h.1a.88.88 0 011.15.51.9.9 0 01-.51 1.16 1 1 0 01-.33.02zm-311.46-2.16a.83.83 0 01-.37-.08.91.91 0 01-.47-1.16.88.88 0 011.13-.5h.08a.89.89 0 01-.37 1.7zm1063.24-1.62a.9.9 0 01-.81-.51.87.87 0 01.39-1.17h.06a.9.9 0 01.74 1.63 1 1 0 01-.41.05zm-735.7-4a.89.89 0 01-.8-.51.9.9 0 01.42-1.19l.38.81-.38-.81a.92.92 0 011.19.38.89.89 0 01-.32 1.18l-.1.06a1.09 1.09 0 01-.42.08zm340.69-.34a.86.86 0 01-.43-.11.9.9 0 01-.37-1.2.87.87 0 011.17-.39h.06a.9.9 0 01.36 1.21.92.92 0 01-.82.49zm-684.69-1.09a.89.89 0 01-.31-.06h-.09a.89.89 0 11.76-1.61l-.38.8.39-.8a.9.9 0 01.45 1.16.89.89 0 01-.85.51zm668.76-7a.91.91 0 01-.8-1.32.87.87 0 011.17-.39h.06a.9.9 0 01.36 1.21.89.89 0 01-.82.45zm-685.14-.14a.91.91 0 01-.32-.06h-.09a.89.89 0 01-.43-1.19.9.9 0 011.19-.42l-.38.8.39-.8a.9.9 0 01.45 1.16.89.89 0 01-.84.46zm-16.39-7.19a.85.85 0 01-.31-.06h-.1a.9.9 0 01.77-1.62l-.38.81.38-.81a.91.91 0 01.46 1.17.9.9 0 01-.85.46zm408.62-.55a.89.89 0 01-.81-.5.87.87 0 01.41-1.18.9.9 0 011.19.42.9.9 0 01-.82 1.28zm-425-6.53a1 1 0 01-.37-.08.9.9 0 01-.56-1.18.87.87 0 011.12-.5h.09a.9.9 0 01.44 1.19.88.88 0 01-.79.52zm-16.54-6.82a.83.83 0 01-.37-.08.91.91 0 01-.47-1.16.88.88 0 011.13-.5h.08a.89.89 0 01-.37 1.7zm474.7-.17a.9.9 0 01-.86-.62.88.88 0 01.52-1.11h.1a.89.89 0 01.49 1.72 1.18 1.18 0 01-.34-.04zm17-5.42a.9.9 0 01-.24-1.76l.24.87-.24-.87a.91.91 0 011.11.59.88.88 0 01-.54 1.1h-.1zM74.63 152a.91.91 0 01-.85-1.21.87.87 0 011.12-.53.9.9 0 01-.32 1.73zm667.75-3.64h-.22a.91.91 0 01-.67-1.06.87.87 0 011-.69h.09a.89.89 0 01-.22 1.76zm17.43 4.17h-.21a.92.92 0 01-.68-1.06.89.89 0 011-.7h.09a.89.89 0 01-.22 1.76zm17.19 5.09a.78.78 0 01-.22 0 .9.9 0 01-.68-1.05.89.89 0 011-.7h.09a.89.89 0 01-.21 1.76zm-176.63-9.31a.9.9 0 01-.89-.69.87.87 0 01.62-1.05h.12a.9.9 0 011 .73.89.89 0 01-.73 1zm-542.65-2.18a1 1 0 01-.24 0h-.1a.89.89 0 01.61-1.68l-.3.84.31-.84a.91.91 0 01.56 1.12.88.88 0 01-.84.56zm649.36-3.57h-.15a.92.92 0 01-.76-1 .9.9 0 011-.78h.1a.89.89 0 01-.14 1.77zm-71.46-.2a.9.9 0 01-.08-1.79l.08.89-.07-.89a.91.91 0 011 .77.89.89 0 01-.72 1h-.19zm-595.06-1.3a.83.83 0 01-.22 0l.42-1.73-.23.86.26-.86a.89.89 0 01-.23 1.76zm648.69 0h-.11a.89.89 0 01-.81-1 .9.9 0 011-.82l-.07.89.08-.89a.91.91 0 01.83.93.88.88 0 01-.92.83zm-35.77-.13a.91.91 0 01-.9-.86.87.87 0 01.8-.92.93.93 0 011 .89.89.89 0 01-.9.86zm17.89-.44a.91.91 0 01-.91-.89.88.88 0 01.88-.89.89.89 0 010 1.78zm-202.83 62.56a.9.9 0 01-.24-1.76l.24.86-.24-.86a.91.91 0 011.11.58.89.89 0 01-.54 1.11h-.1a1 1 0 01-.23.07zm48.37-23.32a.91.91 0 01-.81-.51.89.89 0 01.43-1.19l.38.8-.38-.8a.89.89 0 011.18.37.87.87 0 01-.31 1.18l-.11.06a.85.85 0 01-.38.09zm32.39-15.15a.89.89 0 01-.81-.5.87.87 0 01.41-1.18.89.89 0 11.77 1.61.93.93 0 01-.37.07zm68.7-19.79a.9.9 0 01-.88-.7.88.88 0 01.62-1.05h.11a.92.92 0 011 .73.9.9 0 01-.73 1zm106.9.21h-.14a.91.91 0 01-.76-1 .9.9 0 011-.78h.1a.9.9 0 01-.15 1.78zm68.69 19.23h-.22a.91.91 0 01-.67-1.06.87.87 0 011-.69h.09a.89.89 0 01-.22 1.76zm16.19 7.52a.86.86 0 01-.22 0 .91.91 0 01-.67-1.06.87.87 0 011-.69h.09a.89.89 0 01.65 1.08.91.91 0 01-.85.63zm48.12 24.18a1 1 0 01-.43-.1.93.93 0 01-.38-1.21.88.88 0 011.18-.39h.06a.89.89 0 01-.43 1.67zm100.79 35.52h-.27a.89.89 0 01.47-1.72l-.23.86.23-.86a.92.92 0 01.66 1.06.89.89 0 01-.86.62zm53.09 6.61h-.15a.91.91 0 01-.76-1 .87.87 0 011-.78h.1a.9.9 0 01.74 1 .91.91 0 01-.93.72z"></path><path fill="#f76159" d="M1253.16 142.98h6.37v6.37h-6.37zm-53.67 24.04h6.37v6.37h-6.37zm-57.99 19.73h6.37v6.37h-6.37zm-51.96 11.04h6.37v6.37h-6.37zm-64.03 1.69h6.37v6.37h-6.37zm-80.46-9.9h6.37v6.37h-6.37zm-65.08-21.56h6.37v6.37h-6.37zm-54.42-26.57h6.37v6.37h-6.37zm-50.38-22.92h6.37v6.37h-6.37zm-50.15-12.6h6.37v6.37h-6.37zm-55.67-5.12h6.37v6.37h-6.37zm-61.91 5.69h6.37v6.37h-6.37zm-67.12 20.82h6.37v6.37h-6.37zm-68.78 33.45h6.37v6.37h-6.37zm-64.8 21.44h6.37v6.37h-6.37zm-61.3 8.51h6.37v6.37h-6.37zm-57.96-2.47h6.37v6.37h-6.37zm-54.79-11.49h6.37v6.37h-6.37zm-57.39-22.04h6.37v6.37h-6.37zm-56.04-28.45h6.37v6.37h-6.37zM62.98 101.3h6.37v6.37h-6.37z"></path><path fill="#ffbac8" transform="rotate(-45 1279.705 152.109)" d="M1276.91 149.31h5.59v5.59h-5.59z"></path><path fill="#ffbac8" transform="rotate(-45 1251.221 166.487)" d="M1248.42 163.7h5.59v5.59h-5.59z"></path><path fill="#ffbac8" transform="rotate(-45 1216.695 182.309)" d="M1213.9 179.51h5.59v5.59h-5.59z"></path><path fill="#ffbac8" transform="rotate(-45 1174.42 198.23)" d="M1171.63 195.44h5.59v5.59h-5.59z"></path><path fill="#ffbac8" transform="rotate(-45 1142.666 208.312)" d="M1139.87 205.52h5.59v5.59h-5.59z"></path><path fill="#ffbac8" transform="rotate(-45 1111.336 215.87)" d="M1108.54 213.08h5.59v5.59h-5.59z"></path><path fill="#ffbac8" transform="rotate(-45 1077.233 220.256)" d="M1074.44 217.46h5.59v5.59h-5.59z"></path><path fill="#ffbac8" transform="rotate(-45 1037.17 220.83)" d="M1034.38 218.03h5.59v5.59h-5.59z"></path><path fill="#ffbac8" transform="rotate(-45 987.96 216.964)" d="M985.17 214.17h5.59v5.59h-5.59z"></path><path fill="#ffbac8" transform="rotate(-45 940.1 208.638)" d="M937.31 205.84h5.59v5.59h-5.59z"></path><path fill="#ffbac8" transform="rotate(-45 899.507 195.712)" d="M896.71 192.92h5.59v5.59h-5.59z"></path><path fill="#ffbac8" transform="rotate(-45 863.63 180.003)" d="M860.83 177.21h5.59v5.59h-5.59z"></path><path fill="#ffbac8" transform="rotate(-45 830.909 163.536)" d="M828.12 160.74h5.59v5.59h-5.59z"></path><path fill="#ffbac8" transform="rotate(-45 799.828 148.3)" d="M797.03 145.51h5.59v5.59h-5.59z"></path><path fill="#ffbac8" transform="rotate(-45 768.838 136.327)" d="M766.04 133.53h5.59v5.59h-5.59z"></path><path fill="#ffbac8" transform="rotate(-45 738.4 128.824)" d="M735.6 126.03h5.59v5.59h-5.59z"></path><path fill="#ffbac8" transform="rotate(-45 705.833 123.735)" d="M703.04 120.95h5.59v5.59h-5.59z"></path><path fill="#ffbac8" transform="rotate(-45 670.68 121.775)" d="M667.89 118.99h5.59v5.59h-5.59z"></path><path fill="#ffbac8" transform="rotate(-45 633.18 123.948)" d="M630.39 121.16h5.59v5.59h-5.59z"></path><path fill="#ffbac8" transform="rotate(-45 593.58 131.261)" d="M590.78 128.47h5.59v5.59h-5.59z"></path><path fill="#ffbac8" transform="rotate(-45 552.109 144.73)" d="M549.31 141.94h5.59v5.59h-5.59z"></path><path fill="#ffbac8" transform="rotate(-45 509.144 165.215)" d="M506.36 162.42h5.59v5.59h-5.59z"></path><path fill="#ffbac8" transform="rotate(-45 467.758 184.658)" d="M464.96 181.87h5.59v5.59h-5.59z"></path><path fill="#ffbac8" transform="rotate(-45 427.73 198.569)" d="M424.93 195.77h5.59v5.59h-5.59z"></path><path fill="#ffbac8" transform="rotate(-45 389.038 207.375)" d="M386.25 204.58h5.59v5.59h-5.59z"></path><path fill="#ffbac8" transform="rotate(-45 351.662 211.537)" d="M348.87 208.75h5.59v5.59h-5.59z"></path><path fill="#ffbac8" transform="rotate(-45 315.535 211.521)" d="M312.75 208.73h5.59v5.59h-5.59z"></path><path fill="#ffbac8" transform="rotate(-45 280.643 207.774)" d="M277.85 204.98h5.59v5.59h-5.59z"></path><path fill="#ffbac8" transform="rotate(-45 246.94 200.744)" d="M244.15 197.96h5.59v5.59h-5.59z"></path><path fill="#ffbac8" transform="rotate(-45 212.938 190.308)" d="M210.14 187.51h5.59v5.59h-5.59z"></path><path fill="#ffbac8" transform="rotate(-45 177.237 175.096)" d="M174.45 172.31h5.59v5.59h-5.59z"></path><path fill="#ffbac8" transform="rotate(-45 142.705 157.71)" d="M139.91 154.91h5.59v5.59h-5.59z"></path><path fill="#ffbac8" transform="rotate(-45 108.548 140.308)" d="M105.75 137.52h5.59v5.59h-5.59z"></path><path fill="#ffbac8" transform="rotate(-45 73.98 125.127)" d="M71.19 122.33h5.59v5.59h-5.59z"></path><path fill="#00be9e" d="M509.38 55.05c48.4-26.67 96.94-37.44 138.94-40.42l-1.38-13.5c-50.83 4-100.71 18.19-144.08 42.09C498 45.89 493 48.51 488.07 51l10.32 20.52-4.25-8.45c5.11-2.57 10.24-5.27 15.24-8.02zm9.13 16.56c-5.2 2.87-10.55 5.68-15.87 8.36L508.71 92c5.48-2.75 11-5.65 16.32-8.6 44.08-24.29 88.35-34 126.57-36.6l-1.37-13.43c-39.79 2.81-85.84 12.96-131.72 38.24z"></path><path fill="#fcacc3" d="M851.35 61.42c41.22 20.11 83.84 40.9 123.22 47L976.63 95c-37.36-5.75-79-26.08-119.36-45.74-10.08-4.92-20-9.75-29.68-14.29l-5.54 12.33c9.56 4.49 19.34 9.26 29.3 14.12z"></path><path fill="#fda" d="M764 24.69c18 4.75 37.53 13 58.1 22.63L827.59 35c-21.1-9.87-41.26-18.36-60.2-23.36A363.81 363.81 0 00646.94 1.13l1.38 13.5C702.7 10.77 746.09 20 764 24.69zM759.12 43c-16.84-4.44-57.69-13.12-108.89-9.57l1.37 13.43c48.93-3.34 88 4.95 104.07 9.2 15.77 4.16 33.81 11.82 53.1 20.87l5.53-12.33c-19.82-9.31-38.49-17.22-55.18-21.6z"></path><path fill="#fcacc3" d="M843.06 78.42c-9.79-4.77-19.4-9.46-28.76-13.84l-5.53 12.33c9.21 4.31 18.7 8.94 28.37 13.65 43.39 21.17 88.26 43.05 132.5 49.86l3.5-22.7-1.44 9.35c-42.22-6.5-86.15-27.93-128.64-48.65z"></path><path fill="#ee91b7" d="M502.64 79.97l-4.25-8.44 4.25 8.44zm471.93 28.4l-1.43 9.35 1.43-9.35z"></path><path fill="#059b70" d="M650.23 33.41l-1.91-18.78c-42 3-90.54 13.75-138.94 40.42-5 2.75-10.13 5.45-15.24 8l4.25 8.45 4.25 8.5c5.32-2.68 10.67-5.49 15.87-8.36 45.88-25.31 91.93-35.46 131.72-38.23z"></path><path fill="#f76159" d="M851.35 61.42c-10-4.86-19.74-9.63-29.3-14.1l-7.75 17.26c9.36 4.38 19 9.07 28.76 13.84 42.49 20.72 86.42 42.15 128.64 48.65l1.44-9.35 1.43-9.35c-39.38-6.05-82-26.84-123.22-46.95z"></path><path fill="#fcacc3" d="M648.32 14.63l1.91 18.78c51.2-3.55 92 5.13 108.89 9.57 16.69 4.4 35.36 12.31 55.18 21.6l7.75-17.26C801.48 37.69 782 29.44 764 24.69s-61.3-13.92-115.68-10.06z"></path></g></g></svg>